# Blender3D v245 OBJ File: shuttle.blend
# www.blender3d.org
mtllib shuttle.mtl
o Cube
v 1.648424 1.000000 -3.366779
v -1.576811 1.000000 -3.366779
v 1.648425 1.000000 0.587763
v -1.576812 1.000000 0.587763
v 1.648423 -1.000000 0.587763
v -1.576810 -1.000000 0.587763
v 0.035806 -1.000000 0.587763
v 0.035806 1.000000 0.587763
v 0.035806 -0.394547 1.936526
v 1.969318 -0.394547 1.936526
v -1.897705 -0.394547 1.936526
v 1.662974 -0.309369 1.616327
v -1.591362 -0.309369 1.616327
v 0.035806 -0.309369 1.616327
v 0.035806 0.677137 0.662209
v 1.435974 0.677136 0.662209
v -1.364361 0.677136 0.662209
v 0.035806 1.000000 -0.885236
v 1.163605 1.000000 -0.885236
v -1.091992 1.000000 -0.885236
v 0.035806 1.000000 -3.177360
v 1.163605 1.000000 -3.177360
v -1.091992 1.000000 -3.177360
v 1.163605 1.081197 -3.177360
v -1.091992 1.081197 -3.177360
v 0.035806 1.081197 -3.177360
v 1.163605 1.081197 -0.885236
v -1.091992 1.081197 -0.885236
v 0.035806 1.081197 -0.885236
v 1.648424 -1.000000 -1.389508
v -1.576811 -1.000000 -1.389508
v 1.648424 1.000000 -1.389508
v -1.576811 1.000000 -1.389508
v 2.035221 1.032151 -3.367094
v -1.963608 1.032151 -3.367094
v 2.356116 -0.395000 -3.868746
v -2.284503 -0.395000 -3.868746
v 2.339613 -0.517000 -3.867702
v -2.268001 -0.517000 -3.867702
v 2.018719 -1.074460 -3.366049
v -1.947106 -1.074460 -3.366049
v 1.969319 -0.395000 -0.965953
v -1.897706 -0.395000 -0.965953
v 2.035221 1.032151 -1.389823
v -1.963608 1.032151 -1.389823
v 2.018718 -1.074460 -1.388778
v -1.947106 -1.074460 -1.388778
v 2.356115 -0.395000 -0.966268
v -2.284503 -0.395000 -0.966268
v 2.339613 -0.516826 -0.965223
v -2.268000 -0.516826 -0.965223
v 1.782465 0.828034 -3.161900
v -1.710853 0.828034 -3.161900
v 1.975774 0.828000 -3.162148
v -1.904161 0.828000 -3.162148
v 2.219712 -0.245000 -3.557730
v -2.148099 -0.245000 -3.557730
v 2.026403 -0.245000 -3.557481
v -1.954790 -0.245000 -3.557481
v 1.782465 0.828034 -1.602710
v -1.710853 0.828034 -1.602710
v 2.026403 -0.245000 -1.268713
v -1.954790 -0.245000 -1.268713
v 2.219711 -0.245000 -1.268961
v -2.148098 -0.245000 -1.268961
v 1.975774 0.828000 -1.602959
v -1.904161 0.828000 -1.602959
v 1.648424 -1.000000 -3.366779
v -1.576811 -1.000000 -3.366779
v 0.035806 -1.000000 -3.366779
v 1.969319 -0.395000 -3.868431
v -1.897706 -0.395000 -3.868431
v 0.035806 -0.395000 -3.868431
v 0.035806 1.000000 -3.366779
v 0.035806 0.905172 -3.400879
v 0.035806 -0.300172 -3.834330
v 1.826978 -0.300172 -3.834330
v -1.755365 -0.300172 -3.834330
v 1.549710 0.905172 -3.400879
v -1.478097 0.905172 -3.400879
v 0.035806 -0.438051 -3.832735
v 1.818748 -0.438051 -3.832735
v -1.747135 -0.438051 -3.832735
v 0.035806 -0.956949 -3.402475
v 1.543521 -0.956950 -3.402475
v -1.471908 -0.956950 -3.402475
v 1.543521 -1.000461 -3.454951
v -1.471908 -1.000461 -3.454951
v 0.035806 -1.000461 -3.454951
v 0.035806 -0.481563 -3.885210
v 1.818748 -0.481563 -3.885210
v -1.747135 -0.481563 -3.885210
v 1.549710 0.928240 -3.465027
v -1.478097 0.928240 -3.465027
v 1.826978 -0.277105 -3.898478
v -1.755365 -0.277105 -3.898478
v 0.035806 -0.277105 -3.898478
v 0.035806 0.928240 -3.465027
vn -0.000001 -1.000000 0.000000
vn 0.000001 -1.000000 0.000000
vn 0.000000 1.000000 0.000000
vn 0.000815 0.008466 0.999964
vn -0.000815 0.008466 0.999964
vn 0.000000 -1.000000 0.000000
vn -0.000815 -0.008453 -0.999964
vn 0.000815 -0.008453 -0.999964
vn 0.000000 -0.064754 -0.997901
vn -0.998771 -0.038150 0.031634
vn -0.997977 -0.059818 -0.021511
vn 0.997977 -0.059818 -0.021511
vn 0.998771 -0.038150 0.031634
vn 0.000000 0.338393 -0.941005
vn 0.000000 0.338392 -0.941005
vn 0.000000 0.941005 0.338393
vn -0.977365 0.199081 0.071591
vn 0.977365 0.199081 0.071591
vn 0.000000 -0.638295 -0.769792
vn -0.925803 -0.290986 0.241280
vn -0.925803 -0.290987 0.241280
vn 0.925803 -0.290986 0.241280
vn 0.000000 -0.769791 0.638296
vn 0.000000 0.338390 -0.941006
vn 0.000000 0.338389 -0.941006
vn -0.000001 0.338392 -0.941005
vn 0.000002 0.338392 -0.941005
vn 0.000001 0.338392 -0.941005
vn -0.000002 0.338392 -0.941005
vn -0.893254 0.319614 -0.316139
vn -0.892540 0.319693 -0.318070
vn 0.893254 0.319614 -0.316139
vn 0.892540 0.319693 -0.318070
vn 0.000560 0.900721 -0.434398
vn 0.000354 0.900656 -0.434532
vn -0.000354 0.900656 -0.434532
vn -0.000560 0.900721 -0.434398
vn 0.118259 -0.595896 -0.794306
vn 0.193615 -0.592336 -0.782081
vn -0.193615 -0.592336 -0.782081
vn -0.118259 -0.595896 -0.794306
vn 0.000000 1.000000 0.000001
vn 0.197137 -0.980376 0.000000
vn -0.197137 -0.980376 0.000000
vn 0.975118 -0.221685 0.000000
vn -0.975118 -0.221685 0.000000
vn -0.975120 0.221678 0.000000
vn 0.975120 0.221678 0.000000
vn 0.000178 -1.000000 0.000000
vn 0.000176 -1.000000 0.000000
vn -0.000178 -1.000000 0.000000
vn -0.000176 -1.000000 0.000000
vn -0.000761 -0.722270 0.691611
vn -0.063448 -0.756926 0.650414
vn 0.063448 -0.756926 0.650414
vn 0.000761 -0.722269 0.691611
vn 0.929238 -0.100588 0.355527
vn 0.924668 -0.098772 0.367740
vn -0.929237 -0.100588 0.355528
vn -0.924668 -0.098772 0.367740
vn -0.000571 0.896012 0.444029
vn -0.000362 0.896081 0.443890
vn 0.000362 0.896081 0.443890
vn 0.000571 0.896012 0.444029
vn -0.897647 0.303526 0.319535
vn -0.897616 0.303525 0.319621
vn 0.897616 0.303525 0.319621
vn 0.897647 0.303526 0.319535
vn 0.932311 -0.082103 -0.352214
vn 0.926375 -0.078851 -0.368256
vn -0.926375 -0.078851 -0.368256
vn -0.932312 -0.082103 -0.352213
vn -0.061334 -0.744385 -0.664928
vn 0.001033 -0.708328 -0.705883
vn 0.061334 -0.744385 -0.664928
vn -0.001033 -0.708328 -0.705883
vn -0.975641 0.219372 0.000000
vn -0.975641 0.219373 0.000000
vn 0.975641 0.219372 0.000000
vn 0.975641 0.219373 0.000000
vn -0.866735 -0.498769 0.000000
vn -0.866679 -0.498866 0.000030
vn 0.866679 -0.498866 0.000030
vn 0.866735 -0.498769 0.000000
vn 0.175774 -0.529301 0.830026
vn 0.108412 -0.530903 0.840470
vn -0.108412 -0.530903 0.840470
vn -0.175774 -0.529301 0.830026
vn -0.974540 0.224214 -0.000035
vn -0.974548 0.224177 0.000000
vn 0.974540 0.224214 -0.000035
vn 0.974548 0.224177 0.000000
vn -0.883425 -0.468573 0.000000
vn -0.883503 -0.468426 0.000073
vn 0.883425 -0.468573 0.000000
vn 0.883503 -0.468426 0.000073
vn 0.000000 -0.912298 0.409526
vn 0.548001 0.512949 0.660740
vn -0.548001 0.512949 0.660740
vn -0.990950 -0.134231 0.000008
vn -0.990976 -0.134043 0.000000
vn 0.990976 -0.134043 0.000000
vn 0.990950 -0.134231 0.000008
vn 0.082837 0.996563 0.000000
vn -0.082837 0.996563 0.000000
vn -1.000000 0.000000 0.000000
vn 1.000000 0.000000 0.000000
vn 0.000000 0.000000 1.000000
vn 0.000000 0.000000 -1.000000
vn 0.000000 0.695209 0.718808
vn 0.000000 0.224684 0.974432
vn 0.000000 0.966392 0.257075
vn 0.000000 0.966392 0.257074
usemtl (null)
s off
f 30//1 5//1 7//1
f 7//2 6//2 31//2
f 32//3 22//3 19//3
f 20//3 23//3 33//3
f 3//3 32//3 19//3
f 20//3 33//3 4//3
f 32//3 1//3 22//3
f 23//3 2//3 33//3
f 42//4 50//4 48//4
f 49//5 51//5 43//5
f 30//6 70//6 68//6
f 69//6 70//6 31//6
f 36//7 38//7 71//7
f 72//8 39//8 37//8
f 7//6 70//6 30//6
f 31//6 70//6 7//6
f 96//9 97//9 92//9
f 97//9 90//9 92//9
f 90//9 97//9 91//9
f 97//9 95//9 91//9
f 92//10 83//10 96//10
f 83//11 78//11 96//11
f 77//12 82//12 95//12
f 82//13 91//13 95//13
f 97//14 96//14 94//14
f 97//15 94//15 98//15
f 93//14 95//14 97//14
f 93//15 97//15 98//15
f 98//16 94//16 80//16
f 98//16 80//16 75//16
f 79//16 93//16 98//16
f 79//16 98//16 75//16
f 94//17 96//17 78//17
f 94//17 78//17 80//17
f 77//18 95//18 93//18
f 77//18 93//18 79//18
f 90//19 89//19 88//19
f 90//19 88//19 92//19
f 87//19 89//19 90//19
f 87//19 90//19 91//19
f 92//20 88//20 86//20
f 92//21 86//21 83//21
f 85//22 87//22 91//22
f 85//22 91//22 82//22
f 88//23 89//23 84//23
f 88//23 84//23 86//23
f 84//23 89//23 87//23
f 84//23 87//23 85//23
f 84//19 70//19 86//19
f 70//19 69//19 86//19
f 68//19 70//19 85//19
f 70//19 84//19 85//19
f 86//19 69//19 83//19
f 69//19 72//19 83//19
f 71//19 68//19 82//19
f 68//19 85//19 82//19
f 83//19 72//19 73//19
f 83//19 73//19 81//19
f 73//19 71//19 82//19
f 73//19 82//19 81//19
f 76//15 73//15 78//15
f 73//15 72//15 78//15
f 71//15 73//15 77//15
f 73//15 76//15 77//15
f 80//24 2//24 74//24
f 80//25 74//25 75//25
f 74//24 1//24 79//24
f 74//25 79//25 75//25
f 78//26 72//26 2//26
f 78//27 2//27 80//27
f 1//28 71//28 77//28
f 1//29 77//29 79//29
f 59//30 53//30 2//30
f 59//31 2//31 72//31
f 1//32 52//32 58//32
f 1//33 58//33 71//33
f 59//34 72//34 57//34
f 72//35 37//35 57//35
f 36//36 71//36 56//36
f 71//37 58//37 56//37
f 69//38 41//38 72//38
f 41//39 39//39 72//39
f 38//40 40//40 71//40
f 40//41 68//41 71//41
f 21//42 74//42 23//42
f 74//3 2//3 23//3
f 1//3 74//3 22//3
f 74//42 21//42 22//42
f 41//43 69//43 31//43
f 41//43 31//43 47//43
f 30//44 68//44 40//44
f 30//44 40//44 46//44
f 67//45 65//45 55//45
f 65//45 57//45 55//45
f 56//46 64//46 54//46
f 64//46 66//46 54//46
f 63//47 61//47 53//47
f 63//47 53//47 59//47
f 52//48 60//48 62//48
f 52//48 62//48 58//48
f 63//3 59//3 65//3
f 59//3 57//3 65//3
f 56//3 58//3 64//3
f 58//3 62//3 64//3
f 67//49 55//49 53//49
f 67//50 53//50 61//50
f 52//51 54//51 66//51
f 52//52 66//52 60//52
f 67//53 61//53 45//53
f 61//54 33//54 45//54
f 32//55 60//55 44//55
f 60//56 66//56 44//56
f 65//57 67//57 45//57
f 65//58 45//58 49//58
f 44//59 66//59 64//59
f 44//60 64//60 48//60
f 63//61 65//61 43//61
f 65//62 49//62 43//62
f 48//63 64//63 42//63
f 64//64 62//64 42//64
f 61//65 63//65 33//65
f 63//66 43//66 33//66
f 42//67 62//67 32//67
f 62//68 60//68 32//68
f 55//69 57//69 35//69
f 57//70 37//70 35//70
f 36//71 56//71 34//71
f 56//72 54//72 34//72
f 35//73 2//73 53//73
f 35//74 53//74 55//74
f 52//75 1//75 34//75
f 52//76 34//76 54//76
f 49//77 45//77 35//77
f 49//78 35//78 37//78
f 34//79 44//79 48//79
f 34//80 48//80 36//80
f 47//81 51//81 41//81
f 51//82 39//82 41//82
f 38//83 50//83 40//83
f 50//84 46//84 40//84
f 51//85 47//85 43//85
f 47//86 31//86 43//86
f 30//87 46//87 42//87
f 46//88 50//88 42//88
f 43//89 11//89 4//89
f 43//90 4//90 33//90
f 3//91 10//91 42//91
f 3//92 42//92 32//92
f 43//93 31//93 6//93
f 43//94 6//94 11//94
f 5//95 30//95 42//95
f 5//96 42//96 10//96
f 9//97 11//97 6//97
f 9//97 6//97 7//97
f 5//97 10//97 9//97
f 5//97 9//97 7//97
f 13//98 17//98 4//98
f 13//98 4//98 11//98
f 3//99 16//99 12//99
f 3//99 12//99 10//99
f 51//100 49//100 39//100
f 49//101 37//101 39//101
f 36//102 48//102 38//102
f 48//103 50//103 38//103
f 33//104 2//104 45//104
f 2//104 35//104 45//104
f 34//105 1//105 44//105
f 1//105 32//105 44//105
f 28//3 29//3 26//3
f 28//3 26//3 25//3
f 26//3 29//3 27//3
f 26//3 27//3 24//3
f 25//106 23//106 28//106
f 23//106 20//106 28//106
f 19//107 22//107 27//107
f 22//107 24//107 27//107
f 28//108 20//108 18//108
f 28//108 18//108 29//108
f 18//108 19//108 27//108
f 18//108 27//108 29//108
f 26//109 21//109 23//109
f 26//109 23//109 25//109
f 22//109 21//109 26//109
f 22//109 26//109 24//109
f 20//3 4//3 8//3
f 20//3 8//3 18//3
f 8//3 3//3 19//3
f 8//3 19//3 18//3
f 14//110 15//110 17//110
f 14//110 17//110 13//110
f 16//110 15//110 14//110
f 16//110 14//110 12//110
f 15//111 8//111 17//111
f 8//111 4//111 17//111
f 3//111 8//111 16//111
f 8//111 15//111 16//111
f 13//112 11//112 9//112
f 13//113 9//113 14//113
f 9//112 10//112 12//112
f 9//113 12//113 14//113
